<svg xmlns="http://www.w3.org/2000/svg" width="120" height="120" viewBox="0 0 500 500"><rect width="500" height="500" fill="#fcf7d1" rx="250"/><path fill="#50c8c6" d="M440.7 280.2c0 6.7-.4 13.1-1.2 19.2-1.1 7.9-2.9 15.2-5.3 21.9a86.3 86.3 0 0 1-20.7 32.6C393 374.3 362 385.2 325 390.6c-23 3.3-48.3 4.5-74.9 4.5a529 529 0 0 1-75-4.6c-68-9.8-115.7-38.4-115.7-110.3 0-96.3 85.4-174.3 190.7-174.3 95.7 0 175 64.4 188.6 148.3a161 161 0 0 1 2.1 26z"/><ellipse cx="323.8" cy="217.4" fill="#6ee6e4" rx="52.3" ry="77.6" transform="rotate(-32.5 323.8 217.4)"/><path fill="#50c8c6" d="M169 122.4a192.3 192.3 0 0 0-68 49C76.4 142 81.3 125 110 88c31.7 0 58.3 4.1 59 34.5zm162 0a192.3 192.3 0 0 1 68 49c24.6-29.4 19.6-46.4-9-83.5-31.7 0-58.3 4.1-59 34.5z"/><path fill="#fec3aa" d="M155.6 128.7c-20 10.5-37.8 24.1-52.4 40.2-16.6-20.5-20.3-33.3.4-60 21.5 0 47 2.5 52 19.8zm188.8 0c20 10.5 37.8 24.1 52.4 40.2 16.6-20.5 20.3-33.3-.4-60-21.5 0-47 2.5-52 19.8z"/><path fill="#fff" d="M250 258.3c-33 0-59.9 19.1-59.9 42.7 0 7.6 2.8 14.7 7.7 20.9a53 53 0 0 0 7.5 7.4c4.7 3.4 9.5 5 14.2 5 15.2 0 29-15.6 30.5-33.3 2 23.3 25.1 42.7 44.7 28.3 2.6-2.1 5-4.4 7-6.9l.5-.5a33.5 33.5 0 0 0 7.6-21c0-23.5-26.8-42.6-59.8-42.6z"/><path fill="#15212a" d="M282.5 299.6c-.8 0-1.5.7-1.5 1.5 0 2-1.1 3.5-3.4 4.8-5.8 3.3-17 3.3-22.7 0-2.3-1.4-3.4-3-3.4-5v-.1l.4-.4 13.8-10.8c2.3-1.8 1-5.6-2-5.6h-27.4c-3 0-4.3 3.8-2 5.6l13.8 10.8.4.3v.2c0 2-1.1 3.6-3.4 5-5.7 3.3-17 3.3-22.7 0-2.3-1.3-3.4-2.9-3.4-4.8 0-.8-.7-1.5-1.5-1.5-.9 0-1.5.7-1.5 1.5 0 3 1.7 5.6 5 7.5 3.2 1.9 8 2.8 12.6 2.8 4.8 0 9.6-1 13-3 1.5-.8 2.6-1.8 3.4-3 .8 1.2 2 2.2 3.4 3 3.4 2 8.2 3 13 3 4.7 0 9.4-1 12.7-2.8 3.2-1.9 5-4.5 5-7.5 0-.8-.7-1.5-1.6-1.5z"/><circle cx="169" cy="254.2" r="18.9" fill="#15212a"/><circle cx="175.9" cy="258.3" r="6.3" fill="#fff"/><circle cx="331" cy="254.2" r="18.9" fill="#15212a"/><circle cx="324.1" cy="258.3" r="6.3" fill="#fff"/><path fill="#15212a" d="M333 196.7h-.4l-27.6-2.1a5 5 0 0 1 .8-10l27.5 2a5 5 0 0 1-.3 10zm-166.4 0h.4l27.5-2.1a5 5 0 0 0-.7-10l-27.6 2a5 5 0 0 0 .4 10z"/></svg>