<svg xmlns="http://www.w3.org/2000/svg" width="120" height="120" viewBox="0 0 500 500"><rect width="500" height="500" fill="#b5f4bc" rx="250"/><path fill="#b18272" d="M440.7 280.2c0 6.7-.4 13.1-1.2 19.2-1.1 7.9-2.9 15.2-5.3 21.9a86.3 86.3 0 0 1-20.7 32.6C393 374.3 362 385.2 325 390.6c-23 3.3-48.3 4.5-74.9 4.5a529 529 0 0 1-75-4.6c-68-9.8-115.7-38.4-115.7-110.3 0-96.3 85.4-174.3 190.7-174.3 95.7 0 175 64.4 188.6 148.3a161 161 0 0 1 2.1 26z"/><path fill="#cfa090" d="M156 387.1c-57.8-12.3-96.7-42-96.7-107 0-9.4.8-18.6 2.4-27.6 19.1 3.4 39.3 17 53.6 38.1a105 105 0 0 1 5 8.2 73.6 73.6 0 0 0 21 23.8c4.9 3.6 9.5 8.3 13.3 14 12.3 18.2 12.6 40 1.3 50.5z"/><path fill="#936454" d="M169 122.4C124 57.5 37.6 128 57 176.8c22.1 31.3 49.5 25.6 82.5-20.4a36 36 0 0 0 6.7-22.5c7.6-4.4 15.1-8.3 22.8-11.5zm162 0c44.9-64.9 131.4 5.7 112 54.4-22.1 31.3-49.5 25.6-82.5-20.4a36 36 0 0 1-6.7-22.5c-7.6-4.4-15.1-8.3-22.8-11.5z"/><path fill="#15212a" d="M146.2 134c-.8-14-5-23.9-13.5-28 11.2-1 21.6 4.6 30.8 18.8l-17.3 9.1zm207.6 0c.8-14 5-23.9 13.5-28-11.2-1-21.6 4.6-30.8 18.8l17.3 9.1z"/><path fill="#fff" d="M324.7 343.4c0 34.5-33.4 29.8-74.7 29.8s-74.7 4.7-74.7-29.8 33.4-62.2 74.7-62.2 74.7 27.8 74.7 62.3z"/><path fill="#15212a" d="M274.4 312.3c-.9 0-1.5.7-1.5 1.5 0 6-5.6 8.7-10.7 8.7-4.9 0-10.1-2.5-10.6-7.8v-14.3c13-.1 23.3-1.5 23.3-10.1 0-9-11.2-16.2-24.9-16.2s-24.9 7.2-24.9 16.2c0 8.6 10.3 10 23.3 10v14.5c-.5 5.3-5.7 7.7-10.6 7.7-5.1 0-10.6-2.7-10.6-8.7a1.5 1.5 0 1 0-3 0c0 3.6 1.5 6.7 4.4 8.8 2.4 1.9 5.7 2.9 9.2 2.9 4.9 0 9.8-2.1 12.2-6.1.7 1.2 1.7 2.3 3 3.2 2.4 1.8 5.7 2.8 9.2 2.8 6.8 0 13.7-4 13.7-11.6 0-.8-.7-1.5-1.5-1.5zM339.3 256.8c0 15.3-8 15.1-17.9 15.1-9.8 0-17.8.2-17.8-15 0-15.4 8-27.8 17.8-27.8 9.9 0 17.9 12.4 17.9 27.7z"/><ellipse cx="329.2" cy="241.9" fill="#fff" rx="5.1" ry="7.5" transform="rotate(-22 329.2 242)"/><path fill="#15212a" d="M196.5 256.8c0 15.3-8 15.1-18 15.1s-17.8.2-17.8-15c0-15.4 8-27.8 17.9-27.8s17.9 12.4 17.9 27.7z"/><ellipse cx="186.4" cy="241.9" fill="#fff" rx="5.1" ry="7.5" transform="rotate(-22 186.4 242)"/><path fill="#15212a" d="M139.8 203c-1 0-2-.3-2.8-.9a5 5 0 0 1-1.3-7c10.5-15.5 25.8-20.4 45.7-14.5a5 5 0 1 1-2.9 9.6c-15.6-4.7-26.6-1.3-34.5 10.6a5 5 0 0 1-4.2 2.2zm221.6 0a5 5 0 0 1-4.2-2.2c-8-12-19-15.3-34.5-10.6a5 5 0 1 1-2.9-9.6c19.9-6 35.2-1 45.7 14.6a5 5 0 0 1-4.1 7.8z"/></svg>