<svg xmlns="http://www.w3.org/2000/svg" width="120" height="120" viewBox="0 0 500 500"><rect width="500" height="500" fill="#ece2e1" rx="250"/><path fill="#99c9bd" d="M440.7 280.2c0 6.7-.4 13.1-1.2 19.2-1.1 7.9-2.9 15.2-5.3 21.9a86.3 86.3 0 0 1-20.7 32.6C393 374.3 362 385.2 325 390.6c-23 3.3-48.3 4.5-74.9 4.5a529 529 0 0 1-75-4.6c-68-9.8-115.7-38.4-115.7-110.3 0-96.3 85.4-174.3 190.7-174.3 95.7 0 175 64.4 188.6 148.3a161 161 0 0 1 2.1 26z"/><path fill="#5d8d81" d="M107.1 128.2c-47.4 23-20.8 59 31.7 51.7 7.2-1 13.2-6.2 15.3-13.2 15.1-50.7-17-82-47-38.5zm285.1 0c47.4 23 20.8 59-31.8 51.7-7.2-1-13.1-6.2-15.2-13.2-15.1-50.7 17-82 47-38.5z"/><path fill="#15212a" d="M288.6 308.7a2.8 2.8 0 0 0-3.5-1.4l-18.5 7c0-.2-.1-.3-.3-.3-6.6-3.8-11.5-11.6-14.8-23.8 9.6 0 17 .7 17-9a18.5 18.5 0 1 0-37 0c0 9.7 7.5 9 17 9v.3c3.3 12.3 8 20.5 14.7 25-12 4.5-21.4 8.3-19 8.5 0 0 30.7-5.2 39.8-8.7 5.4-2.1 5.4-4.8 4.6-6.6zM339.3 256.8c0 15.3-8 15.1-17.9 15.1-9.8 0-17.8.2-17.8-15 0-15.4 8-27.8 17.8-27.8 9.9 0 17.9 12.4 17.9 27.7z"/><ellipse cx="329.2" cy="241.9" fill="#fff" rx="5.1" ry="7.5" transform="rotate(-22 329.2 242)"/><path fill="#15212a" d="M196.5 256.8c0 15.3-8 15.1-18 15.1s-17.8.2-17.8-15c0-15.4 8-27.8 17.9-27.8s17.9 12.4 17.9 27.7z"/><ellipse cx="186.4" cy="241.9" fill="#fff" rx="5.1" ry="7.5" transform="rotate(-22 186.4 242)"/><path fill="#15212a" d="M139.8 203c-1 0-2-.3-2.8-.9a5 5 0 0 1-1.3-7c10.5-15.5 25.8-20.4 45.7-14.5a5 5 0 1 1-2.9 9.6c-15.6-4.7-26.6-1.3-34.5 10.6a5 5 0 0 1-4.2 2.2zm221.6 0a5 5 0 0 1-4.2-2.2c-8-12-19-15.3-34.5-10.6a5 5 0 1 1-2.9-9.6c19.9-6 35.2-1 45.7 14.6a5 5 0 0 1-4.1 7.8z"/></svg>