<svg xmlns="http://www.w3.org/2000/svg" width="120" height="120" viewBox="0 0 500 500"><rect width="500" height="500" fill="#ece2e1" rx="250"/><path fill="#50c8c6" d="M440.7 280.2c0 6.7-.4 13.1-1.2 19.2-1.1 7.9-2.9 15.2-5.3 21.9a86.3 86.3 0 0 1-20.7 32.6C393 374.3 362 385.2 325 390.6c-23 3.3-48.3 4.5-74.9 4.5a529 529 0 0 1-75-4.6c-68-9.8-115.7-38.4-115.7-110.3 0-96.3 85.4-174.3 190.7-174.3 95.7 0 175 64.4 188.6 148.3a161 161 0 0 1 2.1 26z"/><path fill="#32aaa8" d="M71.4 144.8c-7.5-15.8 70.4-53.2 78-37.5 8.7 23 7.8 43-1.6 60.6a32 32 0 0 1-33.8 16.5c-21.4-3.7-35.8-16.6-42.6-39.6zm352 0c7.6-15.8-70.3-53.2-78-37.5-8.7 23-7.7 43 1.7 60.6a32 32 0 0 0 33.8 16.5c21.4-3.7 35.8-16.6 42.5-39.6z"/><path fill="#fff" d="M299.9 307.2c0 35-22.3 63.3-49.9 63.3s-49.9-28.3-49.9-63.3 22.4-46.7 49.9-46.7 49.9 11.8 49.9 46.7z"/><path fill="#f3252f" d="m250 315 12.3 7.8c0 23-24.2 23.2-24.4.4v-.4l12.1-7.7z"/><path fill="#15212a" d="M285.2 316c-.8-.3-1.6.2-1.8 1-.9 2.9-3.1 4.8-6.7 5.7A26.5 26.5 0 0 1 254 316c-.5-.5-1-1-1.3-1.6v-7.2c15-1 26.7-11 26.7-22.9 0-12.7-13.2-11.2-29.4-11.2s-29.4-1.5-29.4 11.2c0 12 11.8 21.9 26.8 22.9v7c-.4.7-.9 1.3-1.4 1.8a26.6 26.6 0 0 1-22.7 6.6c-3.6-1-5.9-2.8-6.7-5.7-.2-.8-1-1.3-1.8-1-.8.2-1.3 1-1 1.8 1 4 4.1 6.6 8.7 7.8a29.9 29.9 0 0 0 25.6-7.3c.8-.8 1.4-1.6 1.9-2.4.5.8 1.1 1.6 1.9 2.3a29.9 29.9 0 0 0 25.6 7.4c4.6-1.2 7.6-3.9 8.8-7.8.2-.8-.3-1.6-1-1.9z"/><circle cx="169" cy="250" r="20.4" fill="#15212a"/><circle cx="175.4" cy="255.8" r="9.6" fill="#fff"/><circle cx="159.4" cy="241" r="4.2" fill="#fff"/><circle cx="331" cy="250" r="20.4" fill="#15212a"/><circle cx="324.6" cy="255.8" r="9.6" fill="#fff"/><circle cx="340.6" cy="241" r="4.2" fill="#fff"/><path fill="#15212a" d="M333 196.7h-.4l-27.6-2.1a5 5 0 0 1 .8-10l27.5 2a5 5 0 0 1-.3 10zm-166.4 0h.4l27.5-2.1a5 5 0 0 0-.7-10l-27.6 2a5 5 0 0 0 .4 10z"/></svg>