<svg xmlns="http://www.w3.org/2000/svg" width="120" height="120" viewBox="0 0 500 500"><rect width="500" height="500" fill="#fcf7d1" rx="250"/><path fill="#a1Ac88" d="M440.7 280.2c0 6.7-.4 13.1-1.2 19.2-1.1 7.9-2.9 15.2-5.3 21.9a86.3 86.3 0 0 1-20.7 32.6C393 374.3 362 385.2 325 390.6c-23 3.3-48.3 4.5-74.9 4.5a529 529 0 0 1-75-4.6c-68-9.8-115.7-38.4-115.7-110.3 0-96.3 85.4-174.3 190.7-174.3 95.7 0 175 64.4 188.6 148.3a161 161 0 0 1 2.1 26z"/><path fill="#bfcaa6" d="M156 387.1c-57.8-12.3-96.7-42-96.7-107 0-9.4.8-18.6 2.4-27.6 19.1 3.4 39.3 17 53.6 38.1a105 105 0 0 1 5 8.2 73.6 73.6 0 0 0 21 23.8c4.9 3.6 9.5 8.3 13.3 14 12.3 18.2 12.6 40 1.3 50.5z"/><path fill="#b4a5a5" d="M141.3 140c2.3 7.6 28.7-1.3 26-13.2 0-64.8-28.5-105.3-67-50.6 25.7-13 39.8 7 41 63.8zm217.4 0c-2.3 7.6-28.7-1.3-26.1-13.2 0-64.8 28.6-105.3 67.1-50.6-25.8-13-39.8 7-41 63.8z"/><path fill="#a1Ac88" d="M135.9 140.5a177 177 0 0 0-55.7 60.3c-107.4-4-38.6-64.3 55.7-60.3zm228.2 0a177 177 0 0 1 55.7 60.3c107.3-4 38.6-64.3-55.7-60.3z"/><path fill="#fff" d="M388.7 160.6a177 177 0 0 1 28 34.9c68.8-1 72.8-34.4-28-35zm-277.4 0a177 177 0 0 0-28 34.9c-68.8-1-72.8-34.4 28-35zM250 328v25.9c-8.2.6-16.5 1-25 .4a89 89 0 0 1-14.1-2c-4.8-1-9.5-2.6-14.1-5a34.6 34.6 0 0 1-18.4-23.7c-1-4.7-1.2-9.4-1-13.9.3-4.5 1-8.8 2-13a2.7 2.7 0 0 1 5.3.6c-.2 8.2.6 16.5 3.6 23.2 1.5 3.3 3.5 6.1 6 8.2 2.5 2 5.3 3.5 8.6 4.4 6.5 1.8 14 1.7 21.6.6 7.6-1 15.3-3 23-5.3.8-.2 1.7-.4 2.5-.4z"/><path fill="#fff" d="M250 328v25.9c8.2.6 16.5 1 25 .4a89 89 0 0 0 14.1-2c4.8-1 9.6-2.6 14.1-5a34.6 34.6 0 0 0 18.4-23.7c1-4.7 1.2-9.4 1-13.9-.3-4.5-1-8.8-2-13a2.7 2.7 0 0 0-5.3.6c.2 8.2-.6 16.5-3.6 23.2a22.8 22.8 0 0 1-6 8.2c-2.5 2-5.3 3.5-8.6 4.4-6.5 1.8-14 1.7-21.6.6-7.6-1-15.3-3-23-5.3-.8-.2-1.7-.4-2.5-.4z"/><path fill="#838e6a" d="M292.8 330.6c0 1.2 0 2.3-.2 3.4-2.2 16.6-20.4 24.4-42.6 24.4-22 0-40.3-7.7-42.6-24.2a25.2 25.2 0 0 1-.2-3.6v-2c1.4-17.2 20-44.2 42.8-44.2 22.9 0 41.6 27.2 42.8 44.5v1.7z"/><circle cx="270.6" cy="335.6" r="8.1" fill="#15212a"/><circle cx="229.4" cy="335.6" r="8.1" fill="#15212a"/><circle cx="168.96" cy="262.77" r="18.38" fill="#15212a"/><circle cx="163.12" cy="256.93" r="5.84" fill="#fff"/><circle cx="331.04" cy="262.77" r="18.38" fill="#15212a"/><circle cx="325.2" cy="256.93" r="5.84" fill="#fff"/><ellipse cx="348" cy="190.6" fill="#15212a" rx="8.3" ry="19.4" transform="rotate(-57.5 348 190.6)"/><ellipse cx="152" cy="205.1" fill="#15212a" rx="19.4" ry="8.3" transform="rotate(-32.5 152 205)"/></svg>