<svg xmlns="http://www.w3.org/2000/svg" width="120" height="120" viewBox="0 0 500 500"><rect width="500" height="500" fill="#e4e3cd" rx="250"/><path fill="#99c9bd" d="M440.7 280.2c0 6.7-.4 13.1-1.2 19.2-1.1 7.9-2.9 15.2-5.3 21.9a86.3 86.3 0 0 1-20.7 32.6C393 374.3 362 385.2 325 390.6c-23 3.3-48.3 4.5-74.9 4.5a529 529 0 0 1-75-4.6c-68-9.8-115.7-38.4-115.7-110.3 0-96.3 85.4-174.3 190.7-174.3 95.7 0 175 64.4 188.6 148.3a161 161 0 0 1 2.1 26z"/><path fill="#7bab9f" d="M71.4 144.8c-7.5-15.8 70.4-53.2 78-37.5 8.7 23 7.8 43-1.6 60.6a32 32 0 0 1-33.8 16.5c-21.4-3.7-35.8-16.6-42.6-39.6zm352 0c7.6-15.8-70.3-53.2-78-37.5-8.7 23-7.7 43 1.7 60.6a32 32 0 0 0 33.8 16.5c21.4-3.7 35.8-16.6 42.5-39.6z"/><path fill="#15212a" d="M278.3 286.2a2 2 0 0 0-2 2c0 9.5-12.2 14.6-24.6 15V290h-3.4v13.2c-12.5-.4-24.6-5.5-24.6-15 0-1-.8-2-2-2s-2 1-2 2c0 6 3.5 11.1 10 14.6a44 44 0 0 0 20.3 4.5c14.6 0 30.3-6 30.3-19 0-1.2-1-2-2-2z"/><path fill="#15212a" d="M272.4 275c0-6.4-10.1-11.6-22.5-11.6s-22.5 5.2-22.5 11.5c0 2 1.1 4 3 5.7 1 .8 2 1.7 3.2 2.4l8.7 5.8a13.5 13.5 0 0 0 15.2 0l9.7-6.6 1-.7c2.7-1.9 4.2-4.1 4.2-6.6z"/><circle cx="331.04" cy="253.21" r="22.21" fill="#15212a"/><circle cx="338.81" cy="246.07" r="8.97" fill="#fff"/><circle cx="322.5" cy="263.97" r="5.01" fill="#fff"/><circle cx="168.96" cy="253.21" r="22.21" fill="#15212a"/><circle cx="161.19" cy="246.07" r="8.97" fill="#fff"/><circle cx="177.5" cy="263.97" r="5.01" fill="#fff"/><path fill="#15212a" d="M139.8 203c-1 0-2-.3-2.8-.9a5 5 0 0 1-1.3-7c10.5-15.5 25.8-20.4 45.7-14.5a5 5 0 1 1-2.9 9.6c-15.6-4.7-26.6-1.3-34.5 10.6a5 5 0 0 1-4.2 2.2zm221.6 0a5 5 0 0 1-4.2-2.2c-8-12-19-15.3-34.5-10.6a5 5 0 1 1-2.9-9.6c19.9-6 35.2-1 45.7 14.6a5 5 0 0 1-4.1 7.8z"/></svg>