<svg xmlns="http://www.w3.org/2000/svg" width="120" height="120" viewBox="0 0 500 500"><rect width="500" height="500" fill="#fcf7d1" rx="250"/><path fill="#50c8c6" d="M440.7 280.2c0 6.7-.4 13.1-1.2 19.2-1.1 7.9-2.9 15.2-5.3 21.9a86.3 86.3 0 0 1-20.7 32.6C393 374.3 362 385.2 325 390.6c-23 3.3-48.3 4.5-74.9 4.5a529 529 0 0 1-75-4.6c-68-9.8-115.7-38.4-115.7-110.3 0-96.3 85.4-174.3 190.7-174.3 95.7 0 175 64.4 188.6 148.3a161 161 0 0 1 2.1 26z"/><path fill="#6ee6e4" d="M156 387.1c-57.8-12.3-96.7-42-96.7-107 0-9.4.8-18.6 2.4-27.6 19.1 3.4 39.3 17 53.6 38.1a105 105 0 0 1 5 8.2 73.6 73.6 0 0 0 21 23.8c4.9 3.6 9.5 8.3 13.3 14 12.3 18.2 12.6 40 1.3 50.5z"/><path fill="#50c8c6" d="M104.3 167.8a176.9 176.9 0 0 0-21.6 28.8 67.7 67.7 0 0 1-24.4-12.8 38.1 38.1 0 0 1-14.1-29.4c-.4-7 .7-13.8 1.8-19.5 2.6-13.3 52.2 27.8 58.3 32.9zm291.5 0a176.9 176.9 0 0 1 21.6 28.8 67.7 67.7 0 0 0 24.4-12.8 38.1 38.1 0 0 0 14.1-29.4c.3-7-.7-13.8-1.9-19.5-2.6-13.3-52.2 27.8-58.2 32.9z"/><path fill="#fec3aa" d="M91.3 183.6c-3.1 4.2-6 8.5-8.6 13a67.7 67.7 0 0 1-24.4-12.8 38.1 38.1 0 0 1-14.1-29.4c6.6.3 22 2 30.3 11 5.4 5.7 11.8 12.7 16.8 18.2zm317.5 0c3 4.2 6 8.5 8.6 13a67.7 67.7 0 0 0 24.4-12.8 38.1 38.1 0 0 0 14.1-29.4c-6.7.3-22 2-30.3 11-5.5 5.7-11.8 12.7-16.8 18.2z"/><path fill="#937155" d="M114 61.8s6.7-1 9.5 6.8 1 20.3 8.3 24.1c7.4 3.8 17.2 1.2 16.8-9.8-.4-11 3.2-19.3 10.7-15 7.6 4.5 10.6 13.6 9.4 30.2s-1 36.3-5.2 41.7c-4.2 5.3-20.1 5.3-25.5-2.2-5.4-7.6-8-11-16.3-16a61.2 61.2 0 0 1-24.1-29.3c-3.4-11.5-1.3-32.7 16.5-30.5zm271.8 0s-6.6-1-9.4 6.8-1 20.3-8.3 24.1c-7.4 3.8-17.2 1.2-16.8-9.8.4-11-3.2-19.3-10.8-15-7.5 4.5-10.5 13.6-9.3 30.2s1 36.3 5.2 41.7c4.2 5.3 20 5.3 25.5-2.2 5.4-7.6 8-11 16.3-16 8.4-5 20.7-17.7 24.1-29.3 3.4-11.5 1.2-32.7-16.5-30.5z"/><path fill="#32aaa8" d="M305.2 329c0 25-24.7 45.2-55.2 45.2S194.8 354 194.8 329c0-14 7.7-26.5 20-34.8 3.6 4.6 9 7.5 14.6 10.4-8.2-6.1-12-11.5-13.6-16.5-.4-1.4-.7-2.7-.9-4.1-1.3-9.8 2.1-18.6 9.4-21.9 8.4-3.8 19.3 1.4 25.7 11.8 6.4-10.4 17.3-15.6 25.7-11.8 8.4 3.8 11.6 15 8.4 26.4v.2c-1.7 4.8-5.6 10-13.5 16 5.6-3 11-6 14.7-10.5a42.5 42.5 0 0 1 20 34.8z"/><path fill="#15212a" d="M243.2 294.8c8-3.7 5-17-2.1-20.8-7.1-3.9-16.9 3-15.5 8.2s12.8 14.8 17.6 12.6zm13.6 0c-8-3.7-5-17 2.1-20.8 7.2-3.9 16.9 3 15.5 8.2-1.4 5.2-12.8 14.8-17.6 12.6zM294.2 338.9l-.5-.1c-28.5-9.9-57-9.7-84.9 0-.6.1-1 .3-1.4-.3-.3-.6 0-1.1.5-1.4 11.3-5.8 25.7-5.8 35.8-9.3a18 18 0 0 1 11.8-.1c9.8 3.3 26.8 3.5 39 9.5.5.3 1 .8.7 1.4-.2.4-.6.3-1 .3z"/><circle cx="331.04" cy="253.21" r="22.21" fill="#15212a"/><circle cx="338.81" cy="246.07" r="8.97" fill="#fff"/><circle cx="322.5" cy="263.97" r="5.01" fill="#fff"/><circle cx="168.96" cy="253.21" r="22.21" fill="#15212a"/><circle cx="161.19" cy="246.07" r="8.97" fill="#fff"/><circle cx="177.5" cy="263.97" r="5.01" fill="#fff"/><path fill="#15212a" d="M333 196.7h-.4l-27.6-2.1a5 5 0 0 1 .8-10l27.5 2a5 5 0 0 1-.3 10zm-166.4 0h.4l27.5-2.1a5 5 0 0 0-.7-10l-27.6 2a5 5 0 0 0 .4 10z"/></svg>