<svg xmlns="http://www.w3.org/2000/svg" width="120" height="120" viewBox="0 0 500 500"><rect width="500" height="500" fill="#c4ddd6" rx="250"/><path fill="#b18272" d="M440.7 280.2c0 6.7-.4 13.1-1.2 19.2-1.1 7.9-2.9 15.2-5.3 21.9a86.3 86.3 0 0 1-20.7 32.6C393 374.3 362 385.2 325 390.6c-23 3.3-48.3 4.5-74.9 4.5a529 529 0 0 1-75-4.6c-68-9.8-115.7-38.4-115.7-110.3 0-96.3 85.4-174.3 190.7-174.3 95.7 0 175 64.4 188.6 148.3a161 161 0 0 1 2.1 26z"/><path fill="#b18272" d="M169 122.4a184.8 184.8 0 0 0-79.3 63.4c-6.5 9-12 18.8-16.5 29C64.7 177.9 46.6 85.4 78.9 84c27-1.1 66.6 22.4 90.1 38.3zm257.7 92.1c-3.9-8.7-8.5-17-13.7-24.9a184.5 184.5 0 0 0-82.1-67.3c23.5-15.8 63.1-39.4 90-38.2 32.3 1.3 14.3 93.3 5.8 130.4z"/><path fill="#fec3aa" d="M149.2 132.2c-23.9 13.6-44.3 32-59.5 53.6-5.7-27-13.2-74.9 5.5-75.7 15.9-.6 38.7 12.1 54 22zM413 189.6a184.5 184.5 0 0 0-65.4-59.1c16.7-11 42-25.3 59.6-24.6 20.6 1 12 54.6 5.8 83.7z"/><path fill="#b18272" d="M309.5 114.6c-18.7-5.6-38.7-8.6-59.4-8.6-10.6 0-21 .8-31.1 2.3-8.1-10.8-13-23.6-14-37 0-.4-.1-.8-.1-1.2-.6-11.3 5.6-23.1 5.6-23.1s1.8 10.8 8.9 24.3c7 13.2 19.6 18.4 20 18.6-.1-.2-3.4-4.4-1.2-21.4 2.6-19.5 18.6-28.4 18.6-28.4s-4 11.7-2 25c2.5 16.2 15.9 27.3 15.9 27.3s.3-8.3 5.2-21.5 15.7-20.7 15.7-20.7-2.4 9.8-2.4 27.9c-.2 15 15.3 31.5 20.3 36.5z"/><path fill="#fff" d="M250 258.3c-33 0-59.9 19.1-59.9 42.7 0 7.6 2.8 14.7 7.7 20.9a53 53 0 0 0 7.5 7.4c4.7 3.4 9.5 5 14.2 5 15.2 0 29-15.6 30.5-33.3 2 23.3 25.1 42.7 44.7 28.3 2.6-2.1 5-4.4 7-6.9l.5-.5a33.5 33.5 0 0 0 7.6-21c0-23.5-26.8-42.6-59.8-42.6z"/><path fill="#15212a" d="M282.5 299.6c-.8 0-1.5.7-1.5 1.5 0 2-1.1 3.5-3.4 4.8-5.8 3.3-17 3.3-22.7 0-2.3-1.4-3.4-3-3.4-5v-.1l.4-.4 13.8-10.8c2.3-1.8 1-5.6-2-5.6h-27.4c-3 0-4.3 3.8-2 5.6l13.8 10.8.4.3v.2c0 2-1.1 3.6-3.4 5-5.7 3.3-17 3.3-22.7 0-2.3-1.3-3.4-2.9-3.4-4.8 0-.8-.7-1.5-1.5-1.5-.9 0-1.5.7-1.5 1.5 0 3 1.7 5.6 5 7.5 3.2 1.9 8 2.8 12.6 2.8 4.8 0 9.6-1 13-3 1.5-.8 2.6-1.8 3.4-3 .8 1.2 2 2.2 3.4 3 3.4 2 8.2 3 13 3 4.7 0 9.4-1 12.7-2.8 3.2-1.9 5-4.5 5-7.5 0-.8-.7-1.5-1.6-1.5z"/><circle cx="168.62" cy="248.28" r="15.49" fill="#15212a"/><circle cx="163.62" cy="242.97" r="4.95" fill="#fff"/><circle cx="331.04" cy="248.28" r="15.49" fill="#15212a"/><circle cx="336.04" cy="242.97" r="4.95" fill="#fff"/><path fill="#15212a" d="M139.8 203c-1 0-2-.3-2.8-.9a5 5 0 0 1-1.3-7c10.5-15.5 25.8-20.4 45.7-14.5a5 5 0 1 1-2.9 9.6c-15.6-4.7-26.6-1.3-34.5 10.6a5 5 0 0 1-4.2 2.2zm221.6 0a5 5 0 0 1-4.2-2.2c-8-12-19-15.3-34.5-10.6a5 5 0 1 1-2.9-9.6c19.9-6 35.2-1 45.7 14.6a5 5 0 0 1-4.1 7.8z"/></svg>